<svg id="Layer_5" enable-background="new 0 0 64 64" height="512" viewBox="0 0 64 64" width="512" xmlns="http://www.w3.org/2000/svg"><g fill="#f0bc5e"><path d="m47 39h-10v-6h10z"/><path d="m59 39h-10v-6h10z"/><path d="m47 47h-10v-6h10z"/><path d="m59 47h-10v-6h10z"/></g><path d="m24 21.414 6 6 9.924-9.924-1.414-1.414-8.51 8.51-6-6-15.707 15.707 1.414 1.414z"/><path d="m48 23c-6.065 0-11-4.935-11-11s4.935-11 11-11 11 4.935 11 11-4.935 11-11 11z" fill="#f0bc5e"/><path d="m47 15c-.551 0-1-.449-1-1h-2c0 1.654 1.346 3 3 3v2h2v-2h3v-3c0-1.654-1.346-3-3-3h-2c-.551 0-1-.449-1-1v-1h3c.551 0 1 .449 1 1h2c0-1.654-1.346-3-3-3v-2h-2v2h-3v3c0 1.654 1.346 3 3 3h2c.551 0 1 .449 1 1v1z"/><path d="m59 29v-4h-22v4h-4v34h30v-34zm-20-2h18v2h-18zm14 24v10h-10v-10zm8 10h-6v-10h2v-2h-18v2h2v10h-6v-30h26z"/><path d="m27 37h-22v4h-4v22h30v-22h-4zm-20 2h18v2h-18zm14 16v6h-10v-6zm8 6h-6v-6h2v-2h-18v2h2v6h-6v-18h26z"/><path d="m15 51h-10v-6h10z" fill="#f0bc5e"/><path d="m27 51h-10v-6h10z" fill="#f0bc5e"/></svg>