<svg id="Layer_5" enable-background="new 0 0 64 64" height="512" viewBox="0 0 64 64" width="512" xmlns="http://www.w3.org/2000/svg"><g fill="#f0bc5e"><circle cx="32" cy="22" r="13"/><path d="m47 47v6h12v-6z"/><path d="m5 51h12v-6h-12z"/><path d="m5 59h12v-6h-12z"/></g><path d="m45 42.105v-1.105h1c2.757 0 5-2.243 5-5v-8.184c1.161-.414 2-1.514 2-2.816v-6c0-1.126-.631-2.097-1.551-2.61-2.115-8.945-10.203-15.39-19.449-15.39-9.247 0-17.334 6.445-19.449 15.389-.92.513-1.551 1.485-1.551 2.611v6c0 1.654 1.346 3 3 3 .71 0 1.354-.258 1.868-.671.686 2.072 1.756 3.969 3.132 5.603v4.068h-16v4h-2v22h62v-18.895zm-6 18.895h-4v-10h4zm-6-12v12h-2v-12h-8v12h-2v-14h22v14h-2v-12zm-4 12h-4v-10h4zm14-16h-22v-10.062c1.65 1.405 3.57 2.498 5.671 3.194-.413.514-.671 1.158-.671 1.868 0 1.654 1.346 3 3 3h6c1.302 0 2.402-.839 2.816-2h5.184zm-5.184-6c-.114-.319-.279-.609-.487-.868 2.102-.696 4.021-1.789 5.671-3.194v4.062zm-2.816 0c.552 0 1 .449 1 1s-.448 1-1 1h-6c-.552 0-1-.449-1-1s.448-1 1-1zm-6.91-8h7.819c-.987 3.689-2.496 6-3.91 6s-2.922-2.311-3.909-6zm8.891-8c-.053 2.182-.273 4.207-.615 6h-8.732c-.342-1.793-.562-3.818-.615-6zm-9.962-2c.053-2.182.273-4.207.615-6h8.732c.342 1.793.562 3.818.615 6zm8.754 15.5c.935-1.411 1.678-3.319 2.211-5.5h5.987c-2.008 2.665-4.878 4.635-8.198 5.5zm9.483-7.5h-6.861c.34-1.918.537-3.96.586-6h7.968c-.143 2.155-.732 4.188-1.693 6zm-6.274-8c-.049-2.04-.246-4.082-.586-6h6.861c.961 1.812 1.55 3.845 1.693 6zm-.998-8c-.533-2.182-1.276-4.089-2.211-5.5 3.32.865 6.19 2.835 8.198 5.5zm-2.074 0h-7.82c.987-3.689 2.496-6 3.91-6s2.923 2.311 3.91 6zm-9.894 0h-5.987c2.009-2.665 4.878-4.635 8.198-5.5-.935 1.411-1.678 3.318-2.211 5.5zm-7.272 2h6.861c-.34 1.918-.537 3.96-.586 6h-7.968c.143-2.155.732-4.188 1.693-6zm6.274 8c.049 2.04.246 4.082.586 6h-6.861c-.961-1.812-1.55-3.845-1.693-6zm.998 8c.533 2.182 1.276 4.089 2.211 5.5-3.32-.865-6.19-2.835-8.198-5.5zm19.984 8h-1v-6.068c1.377-1.634 2.446-3.531 3.132-5.603.259.208.549.373.868.487v8.184c0 1.654-1.346 3-3 3zm5-14c0 .551-.448 1-1 1s-1-.449-1-1v-6c0-.551.448-1 1-1s1 .449 1 1zm-19-22c8.057 0 15.139 5.437 17.31 13.088-.44.104-.837.309-1.178.583-2.242-6.769-8.62-11.671-16.132-11.671s-13.89 4.902-16.132 11.671c-.341-.274-.738-.479-1.178-.583 2.17-7.652 9.252-13.088 17.31-13.088zm-17 22c0 .551-.448 1-1 1s-1-.449-1-1v-6c0-.551.448-1 1-1s1 .449 1 1zm-10 14h14v2h-14zm-2 4h16v18h-16zm52 18h-4v-4h4zm6 0h-4v-6h-8v6h-4v-16.883l16 1.778z"/></svg>