<svg id="Layer_5" enable-background="new 0 0 64 64" height="512" viewBox="0 0 64 64" width="512" xmlns="http://www.w3.org/2000/svg"><path d="m57 19v-9.414l-4.586-4.586h-7.414v-1c0-1.654-1.346-3-3-3h-20c-1.654 0-3 1.346-3 3v1h-7.414l-4.586 4.586v9.414h-6v44h62v-44zm-4 0v-6h-6v6h-2v-8h10v8zm-2 0h-2v-4h2zm.586-12 2 2h-8.586v-2zm-29.586-4h20c.551 0 1 .449 1 1v15h-22v-15c0-.551.449-1 1-1zm-9.586 4h6.586v2h-8.586zm-3.414 4h10v8h-2v-6h-6v6h-2zm6 8h-2v-4h2zm46 2v6h-58v-6zm-58 40v-32h58v32z"/><path d="m31 5h-8v12h8zm-2 10h-4v-8h4z"/><path d="m41 5h-8v12h8zm-2 10h-4v-8h4z"/><path d="m5 23h2v2h-2z"/><path d="m9 23h2v2h-2z"/><path d="m13 23h2v2h-2z"/><path d="m18.696 43.717c1.4-1.1 2.304-2.803 2.304-4.717 0-3.309-2.691-6-6-6s-6 2.691-6 6c0 1.914.904 3.617 2.304 4.717-3.688 1.473-6.304 5.075-6.304 9.283v6h20v-6c0-4.208-2.616-7.81-6.304-9.283zm-2.738 7.911-.958.958-.958-.958.662-6.613c.099-.004.196-.015.296-.015s.197.011.296.015zm-4.958-12.628c0-2.206 1.794-4 4-4s4 1.794 4 4-1.794 4-4 4-4-1.794-4-4zm12 18h-2v-8h-2v8h-8v-8h-2v8h-2v-4c0-3.597 2.387-6.646 5.66-7.649l-.702 7.021 3.042 3.042 3.042-3.042-.702-7.021c3.273 1.003 5.66 4.052 5.66 7.649z"/><path d="m44 31h15v2h-15z"/><path d="m40 31h2v2h-2z"/><path d="m27 31h11v2h-11z"/><path d="m27 35h15v2h-15z"/><path d="m44 35h11v2h-11z"/><path d="m57 35h2v2h-2z"/><path d="m47 39h-20v14h12v6h20v-14h-12zm-18 12v-10h16v4h-6v6zm28 6h-16v-10h16z"/><path d="m43 49h2v2h-2z"/><path d="m47 49h2v2h-2z"/><path d="m51 49h2v2h-2z"/><path d="m31 47h2v2h-2z"/><path d="m35 47h2v2h-2z"/></svg>