<?xml version="1.0" encoding="iso-8859-1"?>
<!-- Generator: Adobe Illustrator 16.0.0, SVG Export Plug-In . SVG Version: 6.00 Build 0)  -->
<!DOCTYPE svg PUBLIC "-//W3C//DTD SVG 1.1//EN" "http://www.w3.org/Graphics/SVG/1.1/DTD/svg11.dtd">
<svg version="1.1" id="Capa_1" xmlns="http://www.w3.org/2000/svg" xmlns:xlink="http://www.w3.org/1999/xlink" x="0px" y="0px"
	 width="32.75px" height="32.75px" viewBox="0 0 32.75 32.75" style="enable-background:new 0 0 32.75 32.75;" xml:space="preserve"
	>
<g>
	<g>
		<path d="M29.375,1.25h-1.123c0.029-0.092,0.059-0.186,0.059-0.288c0-0.53-0.432-0.962-0.963-0.962s-0.961,0.432-0.961,0.962
			c0,0.103,0.028,0.196,0.059,0.288h-3.68c0.029-0.092,0.059-0.186,0.059-0.288c0-0.53-0.432-0.962-0.963-0.962
			C21.332,0,20.9,0.432,20.9,0.962c0,0.103,0.029,0.196,0.06,0.288h-3.681c0.029-0.092,0.058-0.186,0.058-0.288
			c0-0.53-0.43-0.962-0.961-0.962c-0.531,0-0.961,0.432-0.961,0.962c0,0.103,0.028,0.196,0.058,0.288h-3.681
			c0.029-0.092,0.059-0.186,0.059-0.288C11.851,0.432,11.42,0,10.89,0c-0.531,0-0.962,0.432-0.962,0.962
			c0,0.103,0.028,0.196,0.058,0.288h-3.68c0.03-0.092,0.059-0.186,0.059-0.288C6.365,0.432,5.935,0,5.404,0
			C4.873,0,4.442,0.432,4.442,0.962c0,0.103,0.028,0.196,0.058,0.288H3.375c-1.518,0-2.75,1.234-2.75,2.75v26
			c0,1.518,1.232,2.75,2.75,2.75H26.27l5.855-5.855V4C32.125,2.484,30.893,1.25,29.375,1.25z M30.625,26.273l-0.311,0.311h-2.355
			c-1.102,0-2,0.9-2,2v2.355l-0.311,0.311H3.375c-0.689,0-1.25-0.561-1.25-1.25V5h28.5V26.273z"/>
		<path d="M18.729,27.812V12.586h-6.06v3.879H4.266v11.35h6.84h7.623V27.812z M16.16,13.604h1.405v1.403H16.16V13.604z
			 M16.16,15.724h1.405v1.403H16.16V15.724z M16.16,17.908h1.404v1.402H16.16V17.908z M16.16,20.027h1.404v1.404H16.16V20.027z
			 M14.04,13.604h1.403v1.403H14.04V13.604z M14.04,15.724h1.403v1.403H14.04V15.724z M14.04,17.908h1.403v1.402H14.04V17.908z
			 M14.04,20.027h1.403v1.404H14.04V20.027z M11.854,17.908h1.404v1.402h-1.404V17.908z M11.854,20.027h1.404v1.404h-1.404V20.027z
			 M9.734,17.908h1.403v1.402H9.734V17.908z M6.832,21.432H5.429v-1.402h1.403V21.432z M6.832,19.312H5.429v-1.403h1.403V19.312z
			 M8.953,21.432H7.549v-1.402h1.404V21.432z M8.953,19.312H7.549v-1.403h1.404V19.312z M9.734,20.027h1.403v1.404H9.734V20.027z"/>
		<polygon points="22.16,12.586 20.75,12.586 19.501,27.812 23.409,27.812 		"/>
		<polygon points="22.16,11.804 21.456,11.804 20.75,11.804 20.75,12.286 22.16,12.286 		"/>
		<path d="M22.848,10.332c0.221,0.787,1.231,1.071,1.947,0.607c0.393,0.396,1.691,0.62,2.27-0.13
			c1.914,0.651,1.692-1.876,0.521-2.316c0.123-1.221-1.732-1.77-2.759-0.392c-0.586-1.427-3.078-0.605-2.666,0.625
			c-1.683,0.342-1.41,2.149-0.704,3.077C21.456,11.022,21.756,10.389,22.848,10.332z"/>
	</g>
</g>
<g>
</g>
<g>
</g>
<g>
</g>
<g>
</g>
<g>
</g>
<g>
</g>
<g>
</g>
<g>
</g>
<g>
</g>
<g>
</g>
<g>
</g>
<g>
</g>
<g>
</g>
<g>
</g>
<g>
</g>
</svg>
