<svg height="512pt" viewBox="-44 0 512 512" width="512pt" xmlns="http://www.w3.org/2000/svg"><path d="m423.59375 435.996094-2.621094-16.5c-.867187-5.457032-6-9.183594-11.453125-8.3125-5.460937.867187-9.183593 5.992187-8.316406 11.453125l2.621094 16.496093c.613281 3.855469-.445313 7.617188-2.984375 10.585938-2.535156 2.972656-6.082032 4.609375-9.988282 4.609375h-357.699218c-3.90625 0-7.453125-1.636719-9.992188-4.609375-2.535156-2.96875-3.59375-6.730469-2.980468-10.585938l27.496093-173.125h328.652344l11.089844 69.835938c.867187 5.457031 5.992187 9.179688 11.453125 8.3125 5.460937-.867188 9.183594-5.992188 8.316406-11.453125l-12.066406-75.964844c-.054688-.34375-.097656-.773437-.125-1.308593 0-.003907 0-.003907 0-.007813-.058594-.980469-.015625-1.925781.125-2.808594l28.46875-179.253906c1.523437-9.59375-1.21875-19.335937-7.527344-26.722656-6.304688-7.390625-15.496094-11.628907-25.210938-11.628907h-1.746093v-4.984374c0-16.554688-13.46875-30.023438-30.023438-30.023438h-282.832031c-16.554688 0-30.023438 13.46875-30.023438 30.023438v4.988281h-13.074218c-9.714844 0-18.90625 4.238281-25.214844 11.625-6.304688 7.390625-9.050781 17.128906-7.523438 26.722656l28.46875 179.257813c.140626.882812.183594 1.828124.125 2.808593v.003907c-.027343.535156-.070312.964843-.125 1.308593l-28.46875 179.257813c-1.527343 9.59375 1.21875 19.332031 7.523438 26.722656 6.308594 7.386719 15.5 11.625 25.214844 11.625h13.074218v7.632812c0 16.554688 13.46875 30.023438 30.023438 30.023438h282.835938c16.554687 0 30.019531-13.46875 30.019531-30.023438v-7.632812h1.75c9.710937 0 18.902343-4.238281 25.210937-11.625 6.304688-7.390625 9.050782-17.128906 7.527344-26.722656zm-357.351562-405.972656c0-5.519532 4.488281-10.007813 10.007812-10.007813h282.835938c5.515624 0 10.007812 4.488281 10.007812 10.007813v4.988281h-302.851562zm-46.0625 40.199218c-.613282-3.859375.445312-7.617187 2.980468-10.589844 2.539063-2.96875 6.085938-4.605468 9.992188-4.605468h357.703125c3.902343 0 7.449219 1.636718 9.988281 4.605468 2.535156 2.96875 3.59375 6.730469 2.980469 10.589844l-27.917969 175.769532h-327.808594zm348.914062 411.753906c0 5.519532-4.492188 10.007813-10.007812 10.007813h-282.835938c-5.519531 0-10.007812-4.488281-10.007812-10.007813v-7.632812h302.851562zm0 0"/><path d="m59.980469 389.976562-.757813 23.785157c-.085937 2.710937.933594 5.34375 2.824219 7.292969 1.882813 1.9375 4.472656 3.035156 7.179687 3.035156h.023438l95.644531-.25c5.390625-.015625 9.804688-4.300782 9.976563-9.691406l.757812-23.78125c.570313-17.886719-10.425781-33.90625-27.796875-41.257813 3.480469-4.847656 5.597657-10.570313 5.792969-16.699219l.464844-14.644531c.105468-3.253906-.332032-6.476563-1.296875-9.582031-4.167969-13.414063-17.230469-22.410156-32.527344-22.410156-.035156 0-.070313 0-.101563 0-14.933593.039062-28.308593 8.777343-33.285156 21.746093-1.207031 3.136719-1.871094 6.414063-1.976562 9.738281l-.464844 14.640626c-.199219 6.253906 1.59375 12.289062 5.101562 17.449218-17.34375 7.382813-29 23.125-29.558593 40.628906zm44.929687-72.082031c.035156-1.082031.253906-2.160156.65625-3.203125 2.003906-5.222656 8.027344-8.882812 14.652344-8.902344h.042969c6.378906 0 11.890625 3.421876 13.417969 8.332032.300781.972656.4375 1.984375.40625 3.007812l-.464844 14.640625c-.210938 6.542969-7.21875 12.085938-15.308594 12.105469-.015625 0-.03125 0-.046875 0-4.324219 0-8.3125-1.550781-10.941406-4.257812-1.371094-1.414063-2.984375-3.789063-2.878907-7.082032zm-24.921875 72.722657c.339844-10.6875 8.667969-20.359376 20.71875-24.070313 5.121094-1.578125 10.40625-2.453125 15.710938-2.605469 1.3125-.035156 2.550781-.050781 3.707031-.054687h.058594c5.699218 0 11.359375.859375 16.832031 2.546875 11.460937 3.539062 18.9375 12.902344 18.609375 23.296875l-.453125 14.117187-75.613281.199219zm0 0"/><path d="m215.296875 323.113281h71.554687c5.527344 0 10.007813-4.480469 10.007813-10.007812 0-5.527344-4.480469-10.007813-10.007813-10.007813h-71.554687c-5.527344 0-10.007813 4.480469-10.007813 10.007813 0 5.527343 4.480469 10.007812 10.007813 10.007812zm0 0"/><path d="m343.957031 343.730469h-128.660156c-5.527344 0-10.007813 4.480469-10.007813 10.007812 0 5.527344 4.480469 10.007813 10.007813 10.007813h128.660156c5.527344 0 10.007813-4.480469 10.007813-10.007813 0-5.527343-4.480469-10.007812-10.007813-10.007812zm0 0"/><path d="m343.957031 385.277344h-128.660156c-5.527344 0-10.007813 4.480468-10.007813 10.007812s4.480469 10.007813 10.007813 10.007813h128.660156c5.527344 0 10.007813-4.480469 10.007813-10.007813s-4.480469-10.007812-10.007813-10.007812zm0 0"/><path d="m61.726562 119.882812h90.78125c5.527344 0 10.007813-4.480468 10.007813-10.007812s-4.480469-10.007812-10.007813-10.007812h-90.78125c-5.527343 0-10.007812 4.480468-10.007812 10.007812s4.480469 10.007812 10.007812 10.007812zm0 0"/><path d="m58.308594 148.746094c0 5.527344 4.480468 10.007812 10.007812 10.007812h169.851563c5.527343 0 10.007812-4.480468 10.007812-10.007812s-4.480469-10.007813-10.007812-10.007813h-169.851563c-5.527344 0-10.007812 4.480469-10.007812 10.007813zm0 0"/><path d="m203.023438 179.003906h-124.824219c-5.527344 0-10.007813 4.480469-10.007813 10.007813 0 5.527343 4.480469 10.007812 10.007813 10.007812h124.824219c5.527343 0 10.007812-4.480469 10.007812-10.007812 0-5.527344-4.480469-10.007813-10.007812-10.007813zm0 0"/><path d="m283.558594 188.402344h68.816406c4.839844 0 8.984375-3.457032 9.847656-8.21875l12.449219-68.519532c.527344-2.921874-.265625-5.925781-2.164063-8.203124-1.902343-2.277344-4.71875-3.59375-7.683593-3.59375h-72.480469c-5.035156 0-9.285156 3.742187-9.925781 8.734374l-8.785157 68.519532c-.367187 2.855468.511719 5.726562 2.414063 7.886718 1.898437 2.15625 4.632813 3.394532 7.511719 3.394532zm17.59375-68.519532h51.683594l-8.8125 48.503907h-49.09375zm0 0"/><path d="m189.269531 112.777344c1.578125 3.894531 5.324219 6.257812 9.28125 6.257812 1.25 0 2.519531-.234375 3.75-.730468 5.125-2.074219 7.597657-7.90625 5.527344-13.03125l-.203125-.5c-2.070312-5.121094-7.902344-7.597657-13.03125-5.523438-5.121094 2.070312-7.597656 7.902344-5.523438 13.027344zm0 0"/><path d="m399.855469 369.222656c-5.125 2.074219-7.597657 7.910156-5.523438 13.03125l.199219.496094c1.578125 3.894531 5.324219 6.257812 9.28125 6.257812 1.25 0 2.519531-.234374 3.75-.734374 5.125-2.074219 7.597656-7.90625 5.523438-13.03125l-.203126-.496094c-2.074218-5.125-7.90625-7.597656-13.027343-5.523438zm0 0"/></svg>