<?xml version="1.0"?>
<svg xmlns="http://www.w3.org/2000/svg" id="outline" viewBox="0 0 512 512" width="512" height="512"><title>business-solution-company-puzzle-jigsaw</title><path d="M46.19141,383.94971A31.83008,31.83008,0,0,0,69.165,376H72v24a40.04552,40.04552,0,0,0,40,40h24v2.84131a31.991,31.991,0,0,0,2.08789,44.47949,31.68476,31.68476,0,0,0,21.87891,8.68066c.68261,0,1.37011-.02148,2.05859-.064A31.99993,31.99993,0,0,0,184,442.83545V440H368a40.04552,40.04552,0,0,0,40-40V304a40.04552,40.04552,0,0,0-40-40H336a8.00008,8.00008,0,0,0-8,8v22.11572a7.99909,7.99909,0,0,0,2.66406,5.96,15.97616,15.97616,0,0,1,5.31055,12.84766,16.15864,16.15864,0,0,1-14.93945,15.04443,15.9984,15.9984,0,0,1-11.69922-27.89209,7.99909,7.99909,0,0,0,2.66406-5.96V272a8.00008,8.00008,0,0,0-8-8H248V144a40.04552,40.04552,0,0,0-40-40H112a40.04552,40.04552,0,0,0-40,40v32a8.00008,8.00008,0,0,0,8,8h22.11621a7.99832,7.99832,0,0,0,5.96-2.66406A16.02641,16.02641,0,0,1,120,176a16.00151,16.00151,0,0,1,15.96777,17.03516,16.15718,16.15718,0,0,1-15.04589,14.939,15.95213,15.95213,0,0,1-12.84473-5.31006A8.00042,8.00042,0,0,0,102.11621,200H80a8.00008,8.00008,0,0,0-8,8V328H69.15918a31.99851,31.99851,0,1,0-22.96777,55.94971ZM298.08789,335.3208A31.99962,31.99962,0,0,0,344,290.835V280h24a24.02718,24.02718,0,0,1,24,24v96a24.02718,24.02718,0,0,1-24,24H248V368a8.00008,8.00008,0,0,0-8-8H217.88379a7.99832,7.99832,0,0,0-5.96,2.66406A16.02641,16.02641,0,0,1,200,368a16.00305,16.00305,0,0,1-15.96777-17.03516,16.15718,16.15718,0,0,1,15.04589-14.939,15.94682,15.94682,0,0,1,12.84473,5.31006A8.00042,8.00042,0,0,0,217.88379,344H240a8.00008,8.00008,0,0,0,8-8V280h48v10.84082a31.99158,31.99158,0,0,0,2.08789,44.48ZM88,216H98.835a32.00259,32.00259,0,1,0,.00586-48H88V144a24.0275,24.0275,0,0,1,24-24h96a24.0275,24.0275,0,0,1,24,24V264H88ZM36.33887,341.04541A15.85049,15.85049,0,0,1,48,336a16.02641,16.02641,0,0,1,11.92383,5.33594A7.99832,7.99832,0,0,0,65.88379,344H80a8.00008,8.00008,0,0,0,8-8V280H232v48H221.165a32.00259,32.00259,0,1,0-.00586,48H232v48H176a8.00008,8.00008,0,0,0-8,8v14.11621a7.99937,7.99937,0,0,0,2.66406,5.96045,15.97012,15.97012,0,0,1,5.31055,12.84619,16.15871,16.15871,0,0,1-14.93945,15.04492,15.99808,15.99808,0,0,1-11.69922-27.8916,7.99911,7.99911,0,0,0,2.66406-5.96V432a8.00008,8.00008,0,0,0-8-8H112a24.0275,24.0275,0,0,1-24-24V368a8.00008,8.00008,0,0,0-8-8H65.88379a8.00042,8.00042,0,0,0-5.96094,2.66406,15.95166,15.95166,0,0,1-12.8457,5.31006,16.157,16.157,0,0,1-15.04492-14.939A15.89555,15.89555,0,0,1,36.33887,341.04541Z"/><path d="M384,168a40,40,0,1,0-40-40A40.04552,40.04552,0,0,0,384,168Zm0-64a24,24,0,1,1-24,24A24.0275,24.0275,0,0,1,384,104Z"/><path d="M488,96H461.34473l-.02637-.064L480.167,77.08838a8.00061,8.00061,0,0,0,0-11.31348l-33.9414-33.9414a8.00061,8.00061,0,0,0-11.31446,0L416.06445,50.68115,416,50.6543V24a8.00008,8.00008,0,0,0-8-8H360a8.00008,8.00008,0,0,0-8,8V50.6543l-.06445.02685L333.08887,31.8335a8.00061,8.00061,0,0,0-11.31446,0L287.833,65.7749a8.00061,8.00061,0,0,0,0,11.31348L306.68164,95.936l-.02637.064H280a8.00008,8.00008,0,0,0-8,8v48a8.00008,8.00008,0,0,0,8,8h26.65527l.02637.064L287.833,178.91162a8.00061,8.00061,0,0,0,0,11.31348l33.9414,33.9414a8.00061,8.00061,0,0,0,11.31446,0l18.84668-18.84765L352,205.3457V232a8.00008,8.00008,0,0,0,8,8h48a8.00008,8.00008,0,0,0,8-8V205.3457l.06445-.02685,18.84668,18.84765a8.00061,8.00061,0,0,0,11.31446,0l33.9414-33.9414a8.00061,8.00061,0,0,0,0-11.31348L461.31836,160.064l.02637-.064H488a8.00008,8.00008,0,0,0,8-8V104A8.00008,8.00008,0,0,0,488,96ZM327.43164,207.1958l-22.62793-22.62744,12.48438-12.48352A80.62852,80.62852,0,0,0,339.915,194.712ZM400,224H368V206.39014a80.31495,80.31495,0,0,0,32,0Zm-16-32a64.07239,64.07239,0,0,1-64-64H304a80.05511,80.05511,0,0,0,1.60986,16H288V112h24a8.00029,8.00029,0,0,0,7.39062-4.938l4.11817-9.94092a8.0001,8.0001,0,0,0-1.7334-8.71875l-16.97168-16.9707L327.43164,48.8042l16.96973,16.97021a7.99935,7.99935,0,0,0,8.71875,1.73438l9.9414-4.11768A8.00015,8.00015,0,0,0,368,56V32h32V49.60986A80.05556,80.05556,0,0,0,384,48V64a64,64,0,0,1,0,128Zm79.19629-7.43164L440.56836,207.1958,428.085,194.712a80.62852,80.62852,0,0,0,22.62695-22.62714ZM450.71191,83.91516A80.62852,80.62852,0,0,0,428.085,61.288l12.4834-12.48382,22.62793,22.62744ZM480,144H462.39014a80.31495,80.31495,0,0,0,0-32H480Z"/></svg>
